<?xml version="1.0" encoding="utf-8"?>
<!-- Generator: Adobe Illustrator 26.3.1, SVG Export Plug-In . SVG Version: 6.00 Build 0)  -->
<svg version="1.0" id="Calque_1" xmlns="http://www.w3.org/2000/svg" xmlns:xlink="http://www.w3.org/1999/xlink" x="0px" y="0px"
	 viewBox="0 0 24 24" style="fill:currentColor" xml:space="preserve">
<style type="text/css">
	.st0{fill:none;}
</style>
<metadata>
    <rdf:RDF
      xmlns:rdf="http://www.w3.org/1999/02/22-rdf-syntax-ns#"
      xmlns:connect="http://www.w3.org/1999/08/29-svg-connections-in-RDF#">
      <rdf:Description about="#CableA">
        <connect:ends rdf:resource="#socket1" />
        <connect:ends rdf:resource="#ComputerA" />
      </rdf:Description>
      <rdf:Description about="#CableB">
        <connect:ends rdf:resource="#socket2" />
        <connect:ends rdf:resource="#ComputerB" />
      </rdf:Description>
      <rdf:Description about="#CableN">
        <connect:ends rdf:resource="#socket5" />
        <connect:ends>Everything</connect:ends>
      </rdf:Description>
      <rdf:Description about="#Hub">
        <connect:ends rdf:resource="#socket1" />
        <connect:ends rdf:resource="#socket2" />
        <connect:ends rdf:resource="#socket3" />
        <connect:ends rdf:resource="#socket4" />
        <connect:ends rdf:resource="#socket5" />
      </rdf:Description>
    </rdf:RDF>
  </metadata>
<path class="st0" d="M0,0h24v24H0V0z"/>
<path d="M12,21.4L10.6,20C5.4,15.4,2,12.3,2,8.5C2,5.4,4.4,3,7.5,3c1.7,0,3.4,0.8,4.5,2.1C13.1,3.8,14.8,3,16.5,3
	C19.6,3,22,5.4,22,8.5c0,3.8-3.4,6.9-8.6,11.5L12,21.4z"/>
<path d="M12,21.2l-1.4-1.3C5.4,15.2,2,12.1,2,8.3c0-3.1,2.4-5.5,5.5-5.5c1.7,0,3.4,0.8,4.5,2.1c1.1-1.3,2.8-2.1,4.5-2.1
	c3.1,0,5.5,2.4,5.5,5.5c0,3.8-3.4,6.9-8.6,11.5L12,21.2z"/>
<path d="M12,21.2l-1.4-1.3C5.4,15.2,2,12.1,2,8.3c0-3.1,2.4-5.5,5.5-5.5c1.7,0,3.4,0.8,4.5,2.1c1.1-1.3,2.8-2.1,4.5-2.1
	c3.1,0,5.5,2.4,5.5,5.5c0,3.8-3.4,6.9-8.6,11.5L12,21.2z"/>
<path d="M12,21.2l-1.4-1.3C5.4,15.2,2,12.1,2,8.3c0-3.1,2.4-5.5,5.5-5.5c1.7,0,3.4,0.8,4.5,2.1c1.1-1.3,2.8-2.1,4.5-2.1
	c3.1,0,5.5,2.4,5.5,5.5c0,3.8-3.4,6.9-8.6,11.5L12,21.2z"/>
<path d="M12,21.2l-1.4-1.3C5.4,15.2,2,12.1,2,8.3c0-3.1,2.4-5.5,5.5-5.5c1.7,0,3.4,0.8,4.5,2.1c1.1-1.3,2.8-2.1,4.5-2.1
	c3.1,0,5.5,2.4,5.5,5.5c0,3.8-3.4,6.9-8.6,11.5L12,21.2z"/>
<path d="M12,21.2l-1.4-1.3C5.4,15.2,2,12.1,2,8.3c0-3.1,2.4-5.5,5.5-5.5c1.7,0,3.4,0.8,4.5,2.1c1.1-1.3,2.8-2.1,4.5-2.1
	c3.1,0,5.5,2.4,5.5,5.5c0,3.8-3.4,6.9-8.6,11.5L12,21.2z"/>
<path d="M12,21.2l-1.4-1.3C5.4,15.2,2,12.1,2,8.3c0-3.1,2.4-5.5,5.5-5.5c1.7,0,3.4,0.8,4.5,2.1c1.1-1.3,2.8-2.1,4.5-2.1
	c3.1,0,5.5,2.4,5.5,5.5c0,3.8-3.4,6.9-8.6,11.5L12,21.2z"/>
<path d="M12,21.2l-1.4-1.3C5.4,15.2,2,12.1,2,8.3c0-3.1,2.4-5.5,5.5-5.5c1.7,0,3.4,0.8,4.5,2.1c1.1-1.3,2.8-2.1,4.5-2.1
	c3.1,0,5.5,2.4,5.5,5.5c0,3.8-3.4,6.9-8.6,11.5L12,21.2z"/>
<path d="M12,21.2l-1.4-1.3C5.4,15.2,2,12.1,2,8.3c0-3.1,2.4-5.5,5.5-5.5c1.7,0,3.4,0.8,4.5,2.1c1.1-1.3,2.8-2.1,4.5-2.1
	c3.1,0,5.5,2.4,5.5,5.5c0,3.8-3.4,6.9-8.6,11.5L12,21.2z"/>
<path d="M12,21.2l-1.4-1.3C5.4,15.2,2,12.1,2,8.3c0-3.1,2.4-5.5,5.5-5.5c1.7,0,3.4,0.8,4.5,2.1c1.1-1.3,2.8-2.1,4.5-2.1
	c3.1,0,5.5,2.4,5.5,5.5c0,3.8-3.4,6.9-8.6,11.5L12,21.2z"/>
<path d="M12,21.2l-1.4-1.3C5.4,15.2,2,12.1,2,8.3c0-3.1,2.4-5.5,5.5-5.5c1.7,0,3.4,0.8,4.5,2.1c1.1-1.3,2.8-2.1,4.5-2.1
	c3.1,0,5.5,2.4,5.5,5.5c0,3.8-3.4,6.9-8.6,11.5L12,21.2z"/>
<path d="M12,21.2l-1.4-1.3C5.4,15.2,2,12.1,2,8.3c0-3.1,2.4-5.5,5.5-5.5c1.7,0,3.4,0.8,4.5,2.1c1.1-1.3,2.8-2.1,4.5-2.1
	c3.1,0,5.5,2.4,5.5,5.5c0,3.8-3.4,6.9-8.6,11.5L12,21.2z"/>
<path d="M12,21.2l-1.4-1.3C5.4,15.2,2,12.1,2,8.3c0-3.1,2.4-5.5,5.5-5.5c1.7,0,3.4,0.8,4.5,2.1c1.1-1.3,2.8-2.1,4.5-2.1
	c3.1,0,5.5,2.4,5.5,5.5c0,3.8-3.4,6.9-8.6,11.5L12,21.2z"/>
<path d="M12,21.2l-1.4-1.3C5.4,15.2,2,12.1,2,8.3c0-3.1,2.4-5.5,5.5-5.5c1.7,0,3.4,0.8,4.5,2.1c1.1-1.3,2.8-2.1,4.5-2.1
	c3.1,0,5.5,2.4,5.5,5.5c0,3.8-3.4,6.9-8.6,11.5L12,21.2z"/>
</svg>
